<svg xmlns="http://www.w3.org/2000/svg" xmlns:xlink="http://www.w3.org/1999/xlink" width="18.209" height="24.448" viewBox="0 0 18.209 24.448">
  <defs>
    <linearGradient id="linear-gradient" x1="-4.038" y1="5.773" x2="-3.991" y2="5.726" gradientUnits="objectBoundingBox">
      <stop offset="0" stop-opacity="0.102"/>
      <stop offset="1" stop-opacity="0"/>
    </linearGradient>
  </defs>
  <g id="Group_90"
      transform="translate(-120 -764.283)">
    <path id="Path_333"
        d="M82.061,5.243,77,.149A.5.5,0,0,0,76.645,0H66.023A2.032,2.032,0,0,0,64,2.037V22.411a2.032,2.032,0,0,0,2.023,2.037H80.186a2.032,2.032,0,0,0,2.023-2.037V5.6A.511.511,0,0,0,82.061,5.243Z" transform="translate(56 764.283)" fill="#989696"/>
    <path id="Path_334"
        d="M341.333,36.669l5.037,5.07h-3.414a1.618,1.618,0,0,1-1.623-1.609Z" transform="translate(-208.288 727.809)" fill="#e6e6e6"/>
    <path id="Path_336"
        d="M337.312,119.031a2.04,2.04,0,0,1-1.274-.454h-.013l4.378,4.378v-3.923Z" transform="translate(-202.885 651.152)" fill="url(#linear-gradient)"/>
    <path id="Path_330"
        d="M0,135H9.687v1.42H0Z" transform="translate(124.58 638.779)" fill="#fff" opacity="0.996"/>
    <path id="Path_337"
        d="M0,135H9.687v1.42H0Z" transform="translate(124.58 641.779)" fill="#fff" opacity="0.996"/>
    <path id="Path_338"
        d="M0,135H9.687v1.42H0Z" transform="translate(124.58 644.779)" fill="#fff" opacity="0.996"/>
  </g>
</svg>
