<svg xmlns="http://www.w3.org/2000/svg" width="32.195" height="19.014" viewBox="0 0 32.195 19.014">
  <g id="Group_85"
      transform="translate(-1960 -1056)">
    <g id="Group_88"
        transform="translate(1960 1066.106)">
      <g id="Group_71"
          transform="translate(9.358 1.542)">
        <g id="Group_70">
          <path id="Path_316"
              d="M158.179,282.73a5.6,5.6,0,0,0-2.692-.685h-2.318a5.628,5.628,0,0,0-5.629,5.629v1.736h13.575v-1.736A5.627,5.627,0,0,0,158.179,282.73Z" transform="translate(-147.54 -282.045)" fill="#989696"/>
        </g>
      </g>
      <g id="Group_73"
          transform="translate(21.604)">
        <g id="Group_72">
          <path id="Path_317"
              d="M346.559,257.225h-1.927a5.573,5.573,0,0,0-3.053.905,7.507,7.507,0,0,1,3.38,6.266v.817h7.211v-2.376A5.618,5.618,0,0,0,346.559,257.225Z" transform="translate(-341.58 -257.225)" fill="#989696"/>
        </g>
      </g>
      <g id="Group_75">
        <g id="Group_74">
          <path id="Path_318"
              d="M7.539,257.225H5.612A5.618,5.618,0,0,0,0,262.837v2.376H7.3V264.4a7.511,7.511,0,0,1,3.334-6.235A5.575,5.575,0,0,0,7.539,257.225Z" transform="translate(0 -257.225)" fill="#989696"/>
        </g>
      </g>
    </g>
    <g id="Group_87"
        transform="translate(1962.917 1056)">
      <g id="Group_77"
          transform="translate(18.92 0.62)">
        <g id="Group_76">
          <path id="Path_319"
              d="M349.116,121.416h-.03a3.993,3.993,0,0,0,.036,7.974h.03a3.662,3.662,0,0,0,2.687-1.213,4.078,4.078,0,0,0,1.062-2.805A3.9,3.9,0,0,0,349.116,121.416Z" transform="translate(-345.337 -121.416)" fill="#989696"/>
        </g>
      </g>
      <path id="Path_320"
          d="M48.717,121.416h-.03a3.993,3.993,0,0,0,.036,7.974h.03a3.662,3.662,0,0,0,2.687-1.213,4.078,4.078,0,0,0,1.062-2.805A3.9,3.9,0,0,0,48.717,121.416Z" transform="translate(-44.938 -120.796)" fill="#989696"/>
      <g id="Group_81"
          transform="translate(8.867)">
        <g id="Group_80">
          <path id="Path_321"
              d="M190.96,111.445a4.494,4.494,0,0,0-4.36,4.607,4.637,4.637,0,0,0,2.5,4.164,4.147,4.147,0,0,0,3.728,0,4.637,4.637,0,0,0,2.5-4.164A4.494,4.494,0,0,0,190.96,111.445Z" transform="translate(-186.6 -111.445)" fill="#989696"/>
        </g>
      </g>
    </g>
  </g>
</svg>
